<?xml version="1.0" standalone="no"?>
<!DOCTYPE svg PUBLIC "-//W3C//DTD SVG 20010904//EN"
 "http://www.w3.org/TR/2001/REC-SVG-20010904/DTD/svg10.dtd">
<svg version="1.0" xmlns="http://www.w3.org/2000/svg"
 width="24.000000pt" height="24.000000pt" viewBox="0 0 24.000000 24.000000"
 preserveAspectRatio="xMidYMid meet">

<g transform="translate(0.000000,24.000000) scale(0.100000,-0.100000)"
fill="#000000" stroke="none">
<path d="M24 125 c-4 -9 -4 -19 0 -22 3 -4 6 2 7 13 0 18 1 18 9 -1 7 -16 9
-17 9 -3 1 23 -18 33 -25 13z"/>
<path d="M65 129 c-4 -5 -4 -13 -1 -16 3 -4 6 0 7 8 0 8 4 6 9 -6 7 -16 9 -17
9 -3 1 21 -15 32 -24 17z"/>
<path d="M154 125 c-4 -9 -4 -19 0 -22 3 -4 6 2 6 13 0 16 2 17 10 4 6 -9 10
-10 10 -3 0 19 -20 26 -26 8z"/>
<path d="M194 125 c-4 -9 -4 -19 0 -22 3 -4 6 2 7 13 0 18 1 18 9 -1 7 -16 9
-17 9 -3 1 23 -18 33 -25 13z"/>
</g>
</svg>
